<svg height="835.692" width="835.692" >
<g transform="scale(30,30)">
<g transform="translate(13.9282,13.9282)">
<g transform="scale(1,-1)">
<!-- MLLL LMLL -->
<polygon points="6.9641,1.86603 1.86603,-6.9641 -6.9641,1.86603 -5.09808,5.09808 " fill="rgb(1, 84, 90)" stroke="rgb(25,25,25)" stroke-width="0.01em" />
<circle cx="3.73205" cy="13.9282" r="0.01em" stroke="rgb(25,25,25)" stroke-width="0" fill="rgb(25,25,25)" />
<circle cx="15.7942" cy="6.9641" r="0.01em" stroke="rgb(25,25,25)" stroke-width="0" fill="rgb(25,25,25)" />
<circle cx="27.8564" cy="0" r="0.01em" stroke="rgb(25,25,25)" stroke-width="0" fill="rgb(25,25,25)" />
<circle cx="36.6865" cy="-5.09808" r="0.01em" stroke="rgb(25,25,25)" stroke-width="0" fill="rgb(25,25,25)" />
<circle cx="48.7487" cy="-12.0622" r="0.01em" stroke="rgb(25,25,25)" stroke-width="0" fill="rgb(25,25,25)" />
<circle cx="-10.1962" cy="13.9282" r="0.01em" stroke="rgb(25,25,25)" stroke-width="0" fill="rgb(25,25,25)" />
<circle cx="1.86603" cy="6.9641" r="0.01em" stroke="rgb(25,25,25)" stroke-width="0" fill="rgb(25,25,25)" />
<circle cx="13.9282" cy="0" r="0.01em" stroke="rgb(25,25,25)" stroke-width="0" fill="rgb(25,25,25)" />
<circle cx="22.7583" cy="-5.09808" r="0.01em" stroke="rgb(25,25,25)" stroke-width="0" fill="rgb(25,25,25)" />
<circle cx="34.8205" cy="-12.0622" r="0.01em" stroke="rgb(25,25,25)" stroke-width="0" fill="rgb(25,25,25)" />
<circle cx="-24.1244" cy="13.9282" r="0.01em" stroke="rgb(25,25,25)" stroke-width="0" fill="rgb(25,25,25)" />
<circle cx="-12.0622" cy="6.9641" r="0.01em" stroke="rgb(25,25,25)" stroke-width="0" fill="rgb(25,25,25)" />
<circle cx="0" cy="0" r="0.01em" stroke="rgb(25,25,25)" stroke-width="0" fill="rgb(25,25,25)" />
<circle cx="8.83013" cy="-5.09808" r="0.01em" stroke="rgb(25,25,25)" stroke-width="0" fill="rgb(25,25,25)" />
<circle cx="20.8923" cy="-12.0622" r="0.01em" stroke="rgb(25,25,25)" stroke-width="0" fill="rgb(25,25,25)" />
<circle cx="-38.0526" cy="13.9282" r="0.01em" stroke="rgb(25,25,25)" stroke-width="0" fill="rgb(25,25,25)" />
<circle cx="-25.9904" cy="6.9641" r="0.01em" stroke="rgb(25,25,25)" stroke-width="0" fill="rgb(25,25,25)" />
<circle cx="-13.9282" cy="0" r="0.01em" stroke="rgb(25,25,25)" stroke-width="0" fill="rgb(25,25,25)" />
<circle cx="-5.09808" cy="-5.09808" r="0.01em" stroke="rgb(25,25,25)" stroke-width="0" fill="rgb(25,25,25)" />
<circle cx="6.9641" cy="-12.0622" r="0.01em" stroke="rgb(25,25,25)" stroke-width="0" fill="rgb(25,25,25)" />
<circle cx="-48.2487" cy="13.9282" r="0.01em" stroke="rgb(25,25,25)" stroke-width="0" fill="rgb(25,25,25)" />
<circle cx="-36.1865" cy="6.9641" r="0.01em" stroke="rgb(25,25,25)" stroke-width="0" fill="rgb(25,25,25)" />
<circle cx="-24.1244" cy="0" r="0.01em" stroke="rgb(25,25,25)" stroke-width="0" fill="rgb(25,25,25)" />
<circle cx="-15.2942" cy="-5.09808" r="0.01em" stroke="rgb(25,25,25)" stroke-width="0" fill="rgb(25,25,25)" />
<circle cx="-3.23205" cy="-12.0622" r="0.01em" stroke="rgb(25,25,25)" stroke-width="0" fill="rgb(25,25,25)" />
<circle cx="0" cy="0" r="0.01em" stroke="rgb(255,255,255)" stroke-width="0" fill="rgb(255,255,255)" />
</g>
</g>
</g>
</svg>
